# xmcd CD database file
#
# Track frame offsets:
#	150
#	11552
#	25931
#	46745
#	58377
#	71664
#	83416
#	98281
#	116644
#	127294
#
# Disc length: 1892 seconds
#
# Revision: 0
# Processed by: cddbd v1.5.1PL2 Copyright (c) Steve Scherf et al.
# Submitted via: CDex 1.51
#
DISCID=7d07620a
DTITLE=Russ McDaniel and The Sleeper Band - Songs From The Sleeper
DYEAR=1998
DGENRE=Country
TTITLE0=Eighty's Just Not Fast Enough
TTITLE1=Truck Drivin' Fool
TTITLE2=Someone Warm To Hold
TTITLE3=This Damn 18 Wheeler Won't Fit Down This Street
TTITLE4=This Trucker's Headed Home
TTITLE5=Jodie On The Phone
TTITLE6=He'll Do Anything To Keep Me From Goin' Home
TTITLE7=As The Crow Flies
TTITLE8=Interstate Trucker
TTITLE9=Thank God For The Big Old Trucks
EXTD=YEAR: 1998
EXTT0=
EXTT1=
EXTT2=
EXTT3=
EXTT4=
EXTT5=
EXTT6=
EXTT7=
EXTT8=
EXTT9=
PLAYORDER=
